<svg width="1440" height="745" viewBox="0 0 1440 745" fill="none" xmlns="http://www.w3.org/2000/svg">
<path opacity="0.1" d="M70.8654 437.002L179.539 248.775L288.212 437.002H70.8654Z" stroke="black"/>
<path opacity="0.1" d="M57.6677 342.056L267.608 285.803L211.355 495.743L57.6677 342.056Z" stroke="black"/>
<path opacity="0.1" d="M58.3297 406.738L212.017 253.051L268.271 462.991L58.3297 406.738Z" stroke="black"/>
<path opacity="0.1" d="M70.2039 311.792L287.551 311.792L178.877 500.019L70.2039 311.792Z" stroke="black"/>
<path opacity="0.1" d="M55.2143 373.906L243.442 265.232L243.442 482.579L55.2143 373.906Z" stroke="black"/>
<path opacity="0.1" d="M91.2168 286.373L301.158 342.626L147.47 496.314L91.2168 286.373Z" stroke="black"/>
<path opacity="0.1" d="M116.135 264.925L304.362 373.598L116.135 482.271L116.135 264.925Z" stroke="black"/>
<path opacity="0.1" d="M1202.4 525.868L1292.3 370.165L1382.19 525.868H1202.4Z" stroke="black"/>
<path opacity="0.1" d="M1191.48 447.328L1365.15 400.795L1318.61 574.459L1191.48 447.328Z" stroke="black"/>
<path opacity="0.1" d="M1192.03 500.833L1319.16 373.702L1365.7 547.366L1192.03 500.833Z" stroke="black"/>
<path opacity="0.1" d="M1201.85 422.293L1381.64 422.293L1291.75 577.996L1201.85 422.293Z" stroke="black"/>
<path opacity="0.1" d="M1189.46 473.674L1345.16 383.778L1345.16 563.569L1189.46 473.674Z" stroke="black"/>
<path opacity="0.1" d="M1219.24 401.267L1392.9 447.801L1265.77 574.932L1219.24 401.267Z" stroke="black"/>
<path opacity="0.1" d="M1239.85 383.523L1395.55 473.419L1239.85 563.314L1239.85 383.523Z" stroke="black"/>
<path opacity="0.1" d="M748.676 672.033C748.676 676.83 746.316 681.565 741.709 686.198C737.1 690.832 730.277 695.326 721.445 699.622C703.784 708.214 678.196 715.964 646.537 722.479C583.225 735.506 495.739 743.567 399.088 743.567C302.437 743.567 214.951 735.506 151.639 722.479C119.979 715.964 94.3913 708.214 76.7304 699.622C67.8988 695.326 61.0757 690.832 56.4671 686.198C51.8598 681.565 49.5 676.83 49.5 672.033C49.5 667.237 51.8598 662.501 56.4671 657.869C61.0757 653.235 67.8988 648.741 76.7304 644.444C94.3913 635.853 119.979 628.102 151.639 621.588C214.951 608.561 302.437 600.5 399.088 600.5C495.739 600.5 583.225 608.561 646.537 621.588C678.196 628.102 703.784 635.853 721.445 644.444C730.277 648.741 737.1 653.235 741.709 657.869C746.316 662.501 748.676 667.237 748.676 672.033Z" stroke="black"/>
<path opacity="0.1" d="M681.992 671.999C681.992 675.895 680.076 679.752 676.312 683.536C672.548 687.322 666.969 690.997 659.74 694.514C645.285 701.546 624.336 707.892 598.408 713.227C546.56 723.895 474.911 730.497 395.754 730.497C316.596 730.497 244.947 723.895 193.1 713.227C167.172 707.892 146.222 701.546 131.767 694.514C124.538 690.997 118.96 687.322 115.195 683.536C111.432 679.752 109.515 675.895 109.515 671.999C109.515 668.102 111.432 664.245 115.195 660.461C118.96 656.675 124.538 653 131.767 649.483C146.222 642.451 167.172 636.105 193.1 630.77C244.947 620.102 316.596 613.5 395.754 613.5C474.911 613.5 546.56 620.102 598.408 630.77C624.336 636.105 645.285 642.451 659.74 649.483C666.969 653 672.548 656.675 676.312 660.461C680.076 664.245 681.992 668.102 681.992 671.999Z" stroke="black"/>
<path opacity="0.1" d="M621.977 672.685C621.977 675.681 620.504 678.66 617.584 681.596C614.663 684.533 610.329 687.39 604.704 690.126C593.454 695.599 577.143 700.541 556.947 704.697C516.564 713.006 460.752 718.149 399.088 718.149C337.424 718.149 281.612 713.006 241.229 704.697C221.033 700.541 204.722 695.599 193.472 690.126C187.846 687.39 183.512 684.533 180.591 681.596C177.672 678.66 176.198 675.681 176.198 672.685C176.198 669.688 177.672 666.71 180.591 663.774C183.512 660.837 187.846 657.98 193.472 655.243C204.722 649.771 221.033 644.828 241.229 640.673C281.612 632.364 337.424 627.221 399.088 627.221C460.752 627.221 516.564 632.364 556.947 640.673C577.143 644.828 593.454 649.771 604.704 655.243C610.329 657.98 614.663 660.837 617.584 663.774C620.504 666.71 621.977 669.688 621.977 672.685Z" stroke="black"/>
<path opacity="0.1" d="M567.864 672.651C567.864 674.892 566.77 677.132 564.575 679.354C562.379 681.577 559.113 683.745 554.864 685.826C546.366 689.986 534.038 693.747 518.764 696.91C488.223 703.235 446.009 707.151 399.364 707.151C352.72 707.151 310.505 703.235 279.965 696.91C264.69 693.747 252.362 689.986 243.865 685.826C239.615 683.745 236.35 681.577 234.153 679.354C231.958 677.132 230.864 674.892 230.864 672.651C230.864 670.411 231.958 668.171 234.153 665.949C236.35 663.726 239.615 661.558 243.865 659.477C252.362 655.316 264.69 651.556 279.965 648.392C310.505 642.067 352.72 638.151 399.364 638.151C446.009 638.151 488.223 642.067 518.764 648.392C534.038 651.556 546.366 655.316 554.864 659.477C559.113 661.558 562.379 663.726 564.575 665.949C566.77 668.171 567.864 670.411 567.864 672.651Z" stroke="black"/>
<line opacity="0.1" x1="663.945" y1="294.026" x2="916.469" y2="41.5013" stroke="black"/>
<line opacity="0.1" x1="749.05" y1="252.171" x2="1001.57" y2="-0.353557" stroke="black"/>
<line opacity="0.1" x1="634.646" y1="345.646" x2="887.171" y2="93.1223" stroke="black"/>
</svg>
