<svg width="40" height="40" viewBox="0 0 40 40" fill="none" xmlns="http://www.w3.org/2000/svg">
<path d="M10.8274 36.8251V14.2379H3.6249V36.8251H10.8274ZM7.22709 11.1522C9.73873 11.1522 11.3021 9.41775 11.3021 7.25028C11.2553 5.03395 9.73883 3.34766 7.27475 3.34766C4.81106 3.34766 3.19995 5.03398 3.19995 7.25028C3.19995 9.41785 4.76294 11.1522 7.18007 11.1522H7.22686H7.22709ZM14.814 36.8251H22.0165V24.2113C22.0165 23.5362 22.0633 22.8619 22.2535 22.3793C22.7742 21.0305 23.9593 19.6336 25.9489 19.6336C28.5552 19.6336 29.5979 21.7049 29.5979 24.7413V36.8249H36.8V23.8737C36.8 16.9358 33.2466 13.7076 28.5078 13.7076C24.6223 13.7076 22.9163 15.9715 21.9686 17.5133H22.0167V14.2375H14.8141C14.9087 16.3569 14.8141 36.8246 14.8141 36.8246L14.814 36.8251Z" fill="white"/>
</svg>
