<svg width="277" height="253" viewBox="0 0 277 253" fill="none" xmlns="http://www.w3.org/2000/svg">
<path fill-rule="evenodd" clip-rule="evenodd" d="M134.211 153.86C119.62 159.917 104.743 150.488 89.4012 149.01C75.953 147.714 61.2521 152.49 49.9622 145.744C38.1596 138.693 32.5389 125.388 28.2023 112.446C23.5959 98.6978 18.7869 83.7061 24.4951 69.7373C30.1969 55.7841 44.2469 46.6212 57.9559 39.6341C70.384 33.2998 84.2555 30.7877 97.722 32.4155C110.143 33.9171 119.383 42.0529 129.846 48.3243C141.82 55.5017 156.744 59.4704 163.213 71.6724C170.391 85.2121 171.61 102.04 166.3 117.088C160.86 132.505 149.646 147.453 134.211 153.86Z" fill="url(#paint0_linear)"/>
<path fill-rule="evenodd" clip-rule="evenodd" d="M224.367 151.169C230.786 151.028 237.339 150.018 243.448 152C249.63 154.005 255.192 157.841 259.62 162.607C263.955 167.272 265.927 173.502 268.742 179.218C271.551 184.921 275.645 190.216 276.331 196.538C277.02 202.874 274.354 208.992 272.643 215.13C270.926 221.286 269.701 227.68 266.165 232.999C262.571 238.404 257.757 243.1 252.027 246.136C246.382 249.127 239.797 249.273 233.495 250.307C227.286 251.325 221.114 253.077 214.88 252.229C208.558 251.369 202.625 248.701 197.183 245.366C191.728 242.023 186.473 238.054 182.985 232.684C179.547 227.391 178.894 220.894 177.316 214.781C175.763 208.764 173.238 202.856 173.686 196.657C174.135 190.433 177.112 184.753 179.887 179.166C182.662 173.58 185.72 168.124 190.076 163.665C194.526 159.109 199.629 155.012 205.608 152.833C211.558 150.665 218.037 151.309 224.367 151.169Z" fill="url(#paint1_linear)"/>
<path fill-rule="evenodd" clip-rule="evenodd" d="M122.201 210.188C127.103 210.197 131.366 213.366 132.933 217.958C134.558 222.721 133.459 228.174 129.346 231.127C125.234 234.08 119.655 233.417 115.574 230.423C111.626 227.526 109.825 222.54 111.339 217.917C112.858 213.278 117.269 210.178 122.201 210.188Z" fill="url(#paint2_linear)"/>
<defs>
<linearGradient id="paint0_linear" x1="71.6871" y1="183.199" x2="180.497" y2="123.067" gradientUnits="userSpaceOnUse">
<stop stop-color="#356A76"/>
<stop offset="1" stop-color="#74CBBB"/>
</linearGradient>
<linearGradient id="paint1_linear" x1="275.907" y1="158.952" x2="184.228" y2="151.15" gradientUnits="userSpaceOnUse">
<stop stop-color="#356A76"/>
<stop offset="1" stop-color="#74CBBB"/>
</linearGradient>
<linearGradient id="paint2_linear" x1="133.533" y1="212.022" x2="113.157" y2="210.308" gradientUnits="userSpaceOnUse">
<stop stop-color="#356A76"/>
<stop offset="1" stop-color="#74CBBB"/>
</linearGradient>
</defs>
</svg>
